# xmcd
#
# Track frame offsets:
#	150
#	12993
#	21210
#	32108
#	42267
#	51027
#	61278
#	79615
#	90501
#	101246
#	113339
#	127751
#	143501
#	164686
#
# Disc length: 2382 seconds
#
# Revision: 0
# Processed by: cddbd v1.5.2PL0 Copyright (c) Steve Scherf et al.
# Submitted via: EasyCDDAExtractor 10.2.0.1
#
DISCID=a7094c0e
DTITLE=The Savages - Back to Maine
DYEAR=2005
DGENRE=
TTITLE0=Coffee Brandy
TTITLE1=Sunday Sunshine
TTITLE2=You'd Rather Be Alone
TTITLE3=Waitin For The Rain
TTITLE4=Back To Maine
TTITLE5=Under The Moon
TTITLE6=Feelin Right
TTITLE7=Swimmin Hole
TTITLE8=Summertime Romance
TTITLE9=My Life's Changes
TTITLE10=Long Long Time
TTITLE11=Joe
TTITLE12=Broken Dreams and Empty Bottles
TTITLE13=School Kid Wishes
EXTD=
EXTT0=
EXTT1=
EXTT2=
EXTT3=
EXTT4=
EXTT5=
EXTT6=
EXTT7=
EXTT8=
EXTT9=
EXTT10=
EXTT11=
EXTT12=
EXTT13=
PLAYORDER=
